/* XPM */
static char *result[] = {
/* columns rows colors chars-per-pixel */
"50 50 154 2 ",
"   c #010101",
".  c #060708",
"X  c #060809",
"o  c #0A0B0C",
"O  c #140C06",
"+  c #180E07",
"@  c #120E0B",
"#  c #151616",
"$  c #181818",
"%  c #26170B",
"&  c #301D0E",
"*  c #201A15",
"=  c #322317",
"-  c #3E2513",
";  c #252627",
":  c #262728",
">  c #303131",
",  c #FF3C3C3C",
"<  c #492C16",
"1  c #4A2D18",
"2  c #522F19",
"3  c #49311F",
"4  c #5D371B",
"5  c #683E1F",
"6  c #483629",
"7  c #503521",
"8  c #4B3C33",
"9  c #613C22",
"0  c #504034",
"q  c #6B4326",
"w  c #714124",
"e  c #7E4828",
"r  c #6C4B33",
"t  c #FF4A4A4A",
"y  c gray33",
"u  c #7D726A",
"i  c #904F30",
"p  c #B36D39",
"a  c #BC7139",
"s  c #C5763C",
"d  c #CB7A3E",
"f  c #9A3746",
"g  c #9D3947",
"h  c #A43D46",
"j  c #AA3F46",
"k  c #A54147",
"l  c #AC4246",
"z  c #AE4A47",
"x  c #B54445",
"c  c #BB4644",
"v  c #BD4844",
"b  c #B25047",
"n  c #BB534A",
"m  c #AB4F57",
"M  c #AD5157",
"N  c #BE7D4F",
"B  c #C44B43",
"V  c #CC4E43",
"C  c #D14F41",
"Z  c #C55445",
"A  c #CE5143",
"S  c #C25C47",
"D  c #CD5844",
"F  c #D25242",
"G  c #D65C43",
"H  c #D85E43",
"J  c #D55C4C",
"K  c #C46446",
"L  c #C96847",
"P  c #C56448",
"I  c #CB6A48",
"U  c #D16245",
"Y  c #DB6544",
"T  c #D16E47",
"R  c #DC6A44",
"E  c #D37346",
"W  c #DA7246",
"Q  c #D47F41",
"!  c #DC7E45",
"~  c #D27148",
"^  c #D87648",
"/  c #DC7C48",
"(  c #C36957",
")  c #D76453",
"_  c #D96956",
"`  c #D96C59",
"'  c #CA7157",
"]  c #E27445",
"[  c #E57C46",
"{  c #DC7460",
"}  c #DF7E69",
"|  c #DE8543",
" . c #DA8258",
".. c #E08644",
"X. c #E88247",
"o. c #E48945",
"O. c #ED8D46",
"+. c #E28348",
"@. c #E9874D",
"#. c #E68B4A",
"$. c #ED8E48",
"%. c #EF9048",
"&. c #F09047",
"*. c #F09049",
"=. c #E7875A",
"-. c #EE9757",
";. c #EC945B",
":. c #EF9A5C",
">. c #F19550",
",. c #CC8071",
"<. c #CD867B",
"1. c #C09274",
"2. c #E69860",
"3. c #EF9E64",
"4. c #EE9F6C",
"5. c #F09F65",
"6. c #E08974",
"7. c #E6927B",
"8. c #F2A166",
"9. c #FF848484",
"0. c #8B8886",
"q. c #FF8D8E8E",
"w. c #928C88",
"e. c #999897",
"r. c #A7A7A7",
"t. c #FFABABAB",
"y. c #B1AFAE",
"u. c #B3B3B2",
"i. c #BDBDBD",
"p. c #C19B83",
"a. c #E89C82",
"s. c #EBA385",
"d. c #EAA389",
"f. c #EAB28D",
"g. c #ECAE93",
"h. c #EEB095",
"j. c #ECB79D",
"k. c #EDBA9C",
"l. c #F4BB94",
"z. c #F3BE9C",
"x. c #EBBDA0",
"c. c #F3BEA1",
"v. c #F4C09E",
"b. c #F4C2A3",
"n. c #F6C6A8",
"m. c #F6C8A9",
"M. c #F8C8A9",
"N. c #C4C4C5",
"B. c gray80",
"V. c #D6D6D6",
"C. c #DBDBDB",
"Z. c #FFE2E2E2",
"A. c #FFEDEDED",
"S. c #FFF1F1F1",
/* pixels */
"A.A.A.A.A.A.Z.Z.Z.Z.Z.Z.Z.Z.Z.Z.Z.Z.Z.Z.Z.Z.Z.Z.Z.Z.Z.Z.Z.Z.Z.Z.Z.Z.Z.Z.Z.Z.Z.Z.Z.Z.Z.Z.A.A.A.A.A.Z.",
"A.A.A.A.A.A.B.y t t t t t t t t t t t t t t t t t t t t t t t t t t t t t t t t t t t t t.S.A.A.A.A.",
"A.A.Z.A.S.S.i.o                                                                         q.S.S.A.A.A.",
"A.A.A.Z.u.t.w.7 < < < < < < < < < < < < < < < 1 < < < < 6 8 8 8 8 8 8 8 3 < < < < < < < u r.t.C.A.A.",
"A.A.A.V.> . - Q #.o.o.o.o.o.#.#.o.o.o.o.o.o.o.o.o.o.o.o.f.x.x.x.x.x.x.k.2.o.#.#.o.o.o.o.9 X $ u.A.A.",
"A.A.S.C.:   & | *.*.%.%.%.$.$.*.%.O.%.*.%.%.%.%.%.%.%.-.l.m.n.n.n.n.n.b.5.$.$.*.%.O.%.$.4   o u.S.A.",
"A.i.9.u r q e n L L L L L L L L L L L L L L L L L L L I ,.<.<.<.<.<.<.<.' L L L L L L L i 5 q u 9.e.",
"A.9.  + s *.| k g g g g g g g g g g g g g g g g g g g g g g g g g h f g g g g g g g g g I *...-   , ",
"S.9.  + s *.[ k g g g g g g g g g g g g g g g g g g h g g g g g g g g g g g g g g g g g I *.| -   , ",
"A.9.  + s *.[ B c c v v v v v v v v v B v v v B v v v v v v v v v v v v v v v v v x g g I *.| -   , ",
"A.9.  + s *.[ G F F F F F F F C C F F F C F F F F F F F F F C C C F F F C C F C F v g g I &.o.-   , ",
"S.9.  + s *.X.G F F F F C F F F C V B B G G G F F C C F V B V _ ` ) F F F F F F F v g g I *.| -   , ",
"A.9.  O s *.X.F F C F F F V F F F c g h T O.[ F F F C C j g M g.c.a.F F C F C F F c g g I %.| -   , ",
"S.9.  + s *.X.F F F C F F F C F F c g g ~ *.[ F C C C V h g m x.n.d.F F F F F F F c g g ~ &.o.-   , ",
"A.9.  O s *.X.F F F F F F F F F F x g g T *.@.Y Y Y Y Y S n ( x.n.d.F F F F F F F c g g I *...-   , ",
"S.9.  O s *.X.F C F C F F C C F C c g g T %.$.$.$.*.O.O.O.X.;.z.m.d.F C F C F F F c g g I &.| -   , ",
"A.9.  + s *.X.F F F F F F F F C C c g k ~ O.$.$.$.$.$.$.%.$.-.z.b.d.J J F F F F C v g g I *.o.-   , ",
"A.9.  + s *.X.G F C F F C F V j j S ^ ^ #.$.$.$.$.$.O.%.$.$.%.:.:.4.d.d._ F F C F x g g I *...-   , ",
"S.9.  + s %.X.F F F F F F F V h f P *.%.$.$.$.%.$.%.%.%.$.$.$.$.O.3.b.b.{ C F F C v g g I *...-   , ",
"A.9.  + s *.X.F F F F F C F V h f P %.%.$.$.$.X.X.X.+.+.$.$.$.$.$.3.b.b.{ C F F F v g g I %...-   , ",
"S.9.  + s *.X.F F F F C F C V h f P $.$.$.%.X.J G Z k z / %.$.$.O.5.b.b.{ C F F F v g g I %...-   , ",
"A.9.  + s *.X.F F C F F F C V h g P %.$.$.$.X.F F v g h / %.%.$.%.8.b.b.{ V C C C c g g I %...-   , ",
"A.9.  + s $.[ F F C F C F F V h g P %.$.$.#.+.F F B j l W X.[ +.[ =.g.d.` C F F C v g g T %...-   , ",
"A.9.  + ~ >.[ F F F F F C C V h f P %.%.$.%.X.F F C F F F F F F G F F F F F F C F v g g I *...-   , ",
"S.9.  + s *.X.F F F F F F C V h g P $.$.$.$.[ F F F F F F F F F F F F F F F F F F v g g I %.o.-   , ",
"A.9.  + s $.X.F C V F F F F V h g P %.$.$.$.$.[ ] ] ] [ [ ] ] [ ] =.a.a._ A F C F v g g I %.| -   , ",
"S.9.  + s *.X.F F F F F F F V h f P *.$.$.$.$.$.%.%.%.$.%.#.%.%.O.5.b.b.{ C F F F v g g I &...-   , ",
"A.9.  + s *.X.G F F F C C F V h h P X.O.@.$.O.O.$.o.o.@.$.%.%.%.$.3.b.c.{ C F F F c g g I &...-   , ",
"A.9.  + s *.[ F F F F V F C C B B F H H G G G G Y Z z b | $.$.$.O.3.b.b.{ C C F F c g g I *.o.-   , ",
"A.9.  + s *.X.F F F F F F F F F F C C C C C F F F v g g / $.$.$.O.3.b.z.{ C F F F c g g I &...-   , ",
"S.9.  + s *.X.G F F F F F C C B v D R R R R Y F F v g h / %.$.$.O.3.b.b.{ C F F F c g g I &.| -   , ",
"A.9.  + s *.X.F C F F F F F B h g P $.$.$.$.[ F F v g k / %.$.$.O.3.b.c.{ C F F F c g g I %...-   , ",
"S.9.  + s *.X.F F F C F F F V h g P $.$.$.$.+.F F B f h / $.$.$.O.3.b.c.{ C F F C v g g I *.+.-   , ",
"A.9.  + s *.X.F F F F F F C V h g P $.$.$.$.X.] ] W L I o.$.$.$.O.3.b.b.{ C F F C c g g I *.o.-   , ",
"A.9.  + s *.X.G F F F F F F V h g P $.$.$.$.$.%.%.%.%.$.$.$.$.O.O.5.b.b.{ V F F F c g g I %.| -   , ",
"A.9.  + s &.[ F F F F C F C V j h S +.+.@.O.$.$.$.$.$.$.$.$.$.-.-.4.g.g.` C F C F v g g I %...-   , ",
"S.9.  + s $.X.F F C F C C F C V V v k k ~ %.O.%.$.$.$.$.$.$.-.l.z.s.) J F F F F F v g g I %...-   , ",
"A.9.  + I *.X.F F F F F F F F F F x g g T %.O.O.%.$.%.%.%.O.:.z.n.s.F F F F C F F v g g ~ %...-   , ",
"S.9.  + s %.o.G F C F F F C F F F x g g ~ %.O.[ [ [ [ [ ^ E  .z.n.d.F F F F F F F v g g I %...-   , ",
"A.9.  + s %.X.F F F C F F F F C F x g h T %.[ G F F F A l g M k.n.d.F F C F C F F x g g I *.| -   , ",
"A.9.  + s *.[ F C F F F F F F F F c g g ~ %.+.F C F F A j f M j.m.d.F F C F F F F v g g I %.| -   , ",
"S.9.  + s &.X.G F F F F F F F C F B x x U ] R F F F F F v x n 6.7.} F F F F F F C v g g ~ %...-   , ",
"A.9.  + s *.X.F F F F F F F F F F F F C F F F F F F F F C C F F F F F F F C F F F c g g T *.o.-   , ",
"S.q.$ * a | d G F F J F G F G F F G F G G F F G G F F F J J J U J J J J J F F G F B k k K d d 6 # y ",
"A.C.N.u.6 % 2 ! X.X.X.X.X.X.X.X.X.X.X.o.X.X.X.X.X.X.X.@.s.h.h.h.g.h.h.g.;.X.X.X.X.X.| ! w % = e.N.B.",
"A.A.A.V.;   & | *.&.&.O.*.*.*.*.&.&.&.%.*.&.&.O.*.*.*.>.v.M.M.M.M.M.M.M.8.O.*.*.%.*.%.%.5   o u.S.A.",
"A.A.A.C.y > 0 p a a a a a a a a s a a a a a a a a a a a 1.p.p.p.p.p.p.p.N p a p a a a a r > , i.A.A.",
"A.A.A.A.C.C.y.$ O O O O . O O @ . O O . O O O O . O O @ @ @ @ O @ @ @ @ O O O O O O O O 0.Z.C.Z.A.A.",
"A.A.A.A.A.A.i.#   .   . .   .   .   .   . .   .   . .   . .   .   . .   . .   .   .   X q.S.A.A.A.Z.",
"A.Z.A.A.A.A.V.0.9.9.9.9.9.9.9.9.9.9.9.9.9.9.9.9.9.9.9.9.9.9.9.9.9.9.9.9.9.9.9.9.9.9.9.0.N.S.A.A.A.A."
};
