/* XPM */
static char *result[] = {
/* columns rows colors chars-per-pixel */
"20 20 214 2 ",
"   c #ECECEC",
".  c gray94",
"X  c #C7C8C8",
"o  c #676869",
"O  c #646566",
"+  c #646565",
"@  c #646465",
"#  c #626364",
"$  c #8C8D8E",
"%  c #EBEBEC",
"&  c #C0C1C2",
"*  c #75685E",
"=  c #774825",
"-  c #774723",
";  c #774824",
":  c #795B45",
">  c #7A6454",
",  c #78553B",
"<  c #774722",
"1  c #75533A",
"2  c #8D8D8E",
"3  c #E7E7E7",
"4  c #C5C5C6",
"5  c #7A6D62",
"6  c #7C4527",
"7  c #CD6D47",
"8  c #D06E49",
"9  c #D06F4A",
"0  c #D38672",
"q  c #D59184",
"w  c #D59084",
"e  c #D27F66",
"r  c #D06E48",
"t  c #D26F49",
"y  c #AE5D39",
"u  c #674832",
"i  c #94918F",
"p  c #7F8182",
"a  c #5F3A1E",
"s  c #DB7847",
"d  c #AE4246",
"f  c #AC4046",
"g  c #AD4046",
"h  c #AC3F46",
"j  c #AD4045",
"k  c #AC3F45",
"l  c #A53C46",
"z  c #B75348",
"x  c #BA6E39",
"c  c #261F19",
"v  c #5E3A1E",
"b  c #E57C46",
"n  c #D25242",
"m  c #D15042",
"M  c #CF4F42",
"N  c #C54C43",
"B  c #D35C44",
"V  c #D25442",
"C  c #D04F42",
"Z  c #C54A43",
"A  c #D06255",
"S  c #D66251",
"D  c #D25142",
"F  c #BB4644",
"G  c #7F8183",
"H  c #D35242",
"J  c #D35142",
"K  c #CC4E43",
"L  c #A94146",
"P  c #DB7947",
"I  c #DD6844",
"U  c #D65C43",
"Y  c #BA5046",
"T  c #D89582",
"R  c #E48B74",
"E  c #D14F40",
"W  c #BC4644",
"Q  c #B44E47",
"!  c #E08048",
"~  c #ED8C48",
"^  c #EC8B48",
"/  c #E98948",
"(  c #EFA777",
")  c #E69276",
"_  c #D55B4B",
"`  c #CB4E43",
"'  c #AF4746",
"]  c #DF7F48",
"[  c #EC8D48",
"{  c #EA8847",
"}  c #E58548",
"|  c #EA8B48",
" . c #EE904B",
".. c #F0A978",
"X. c #E28872",
"o. c #D25041",
"O. c #CB4D43",
"+. c #AD4647",
"@. c #E38448",
"#. c #D96244",
"$. c #B84B46",
"%. c #D87647",
"&. c #EC8A46",
"*. c #EFA575",
"=. c #D86044",
"-. c #CC5143",
";. c #D45C44",
":. c #D96143",
">. c #DA6950",
",. c #D6604F",
"<. c #AE4746",
"1. c #E28248",
"2. c #E88347",
"3. c #E68047",
"4. c #E78147",
"5. c #E78146",
"6. c #EA986D",
"7. c #DF7F6A",
"8. c #D35041",
"9. c #D05042",
"0. c #C74E43",
"q. c #D76144",
"w. c #DB6444",
"e. c #D96344",
"r. c #C15946",
"t. c #DC7D48",
"y. c #EE8F47",
"u. c #F1AC79",
"i. c #E38C76",
"p. c #CD4E42",
"a. c #B84A45",
"s. c #DE7446",
"d. c #E47946",
"f. c #D45843",
"g. c #D57548",
"h. c #F1AB78",
"j. c #E38B75",
"k. c #ED8E48",
"l. c #E47B46",
"z. c #D47047",
"x. c #E48448",
"c. c #ED8E47",
"v. c #CF5042",
"b. c #C04B44",
"n. c #BF5B47",
"m. c #EE9048",
"M. c #EE8F48",
"N. c #F0A36B",
"B. c #E99877",
"V. c #D86755",
"C. c #D35141",
"Z. c #A74047",
"A. c #DC7B48",
"S. c #E37746",
"D. c #DF6F45",
"F. c #CC6747",
"G. c #E2A185",
"H. c #E48D76",
"J. c #D14E40",
"K. c #7D7F81",
"L. c #5D381C",
"P. c #E87E47",
"I. c #D25042",
"U. c #B84745",
"Y. c #D76845",
"T. c #D55743",
"R. c #D04E42",
"E. c #BA4443",
"W. c #D17468",
"Q. c #DD7460",
"!. c #BB4544",
"~. c #B75349",
"^. c #BC6F39",
"/. c #231C16",
"(. c #ABADAD",
"). c #6F5949",
"_. c #A55A31",
"`. c #DE6A45",
"'. c #E06B45",
"]. c #E06C46",
"[. c #E27B61",
"{. c #E3816C",
"}. c #E27659",
"|. c #E16B45",
" X c #D46547",
".X c #B25A3F",
"XX c #845533",
"oX c #6C6864",
"OX c #EFEFEF",
"+X c #ABACAC",
"@X c #624F40",
"#X c #A36231",
"$X c #A66331",
"%X c #A66231",
"&X c #A66332",
"*X c #A97E60",
"=X c #AB8974",
"-X c #A87652",
";X c #A56230",
":X c #A76331",
">X c #885935",
",X c #6B6968",
"<X c gray88",
"1X c #B3B2B1",
"2X c #393735",
"3X c #353230",
"4X c #353331",
"5X c #353432",
"6X c #353433",
"7X c #353332",
"8X c #32302E",
"9X c #686665",
"0X c gray89",
"qX c white",
/* pixels */
"  . X o O O O O O O O + @ @ + O # $ %   ",
". & * = - - - - - - ; : > > , < < 1 2 3 ",
"4 5 6 7 8 8 8 8 8 8 9 0 q w e r t y u i ",
"p a s d f f f g h f f j k k f g l z x c ",
"p v b n m m M N B V C Z A S m D F z x c ",
"G v b H D J K L P I U Y T R E J W z x c ",
"G v b H D m N Q ! ~ ^ / ( ) _ J W z x c ",
"G v b H D ` ' ] [ { } |  ...X.o.W z x c ",
"G v b H D O.+.@.^ #.$.%.&.*.X.o.W z x c ",
"G v b H D O.+.@.^ =.-.;.:.>.,.J W z x c ",
"G v b H D O.<.1.~ 2.3.4.5.6.7.8.W z x c ",
"G v b H D 9.0.q.w.e.r.t.y.u.i.o.W z x c ",
"G v b H D p.a.s.d.f.g g.y.h.j.o.W z x c ",
"G v b H D O.+.@.k.l.z.x.c.h.j.o.W z x c ",
"G v b H D v.b.n.@.m.m.M.N.B.V.C.W z x c ",
"G v b H D J K Z.A.S.D.F.G.H.J.J W z x c ",
"K.L.P.n m I.p.U.Y.T.R.E.W.Q.E I.!.~.^./.",
"(.)._.`.'.'.'.'.'.'.].[.{.{.}.|. X.XXXoX",
"OX+X@X#X$X$X$X$X$X%X&X*X=X=X-X;X:X>X,X<X",
"    1X2X3X3X3X3X3X3X4X5X6X6X7X3X8X9X0X  "
};
