/* XPM */
static char *result[] = {
/* columns rows colors chars-per-pixel */
"50 50 179 2 ",
"   c #0E0E21",
".  c #100F22",
"X  c #121225",
"o  c #141529",
"O  c #16182A",
"+  c #18192C",
"@  c #161A33",
"#  c #1B1F38",
"$  c #1C2231",
"%  c #252537",
"&  c #272738",
"*  c #27293C",
"=  c #28293B",
"-  c #1C2644",
";  c #1E2C5A",
":  c #212C41",
">  c #282F4C",
",  c #2A3C4D",
"<  c #3C3C4B",
"1  c #202E5B",
"2  c #23335D",
"3  c #28365D",
"4  c #263866",
"5  c #263E77",
"6  c #293E72",
"7  c #273F78",
"8  c #293F78",
"9  c #374161",
"0  c #2A4077",
"q  c #2B427A",
"w  c #30477D",
"e  c #354A7A",
"r  c #40404F",
"t  c #454755",
"y  c #5A5A67",
"u  c #56596A",
"i  c #5F5F6C",
"p  c #4D5776",
"a  c #5C6573",
"s  c #597F7D",
"d  c #61616D",
"f  c #676773",
"g  c #2D4682",
"h  c #2F4983",
"j  c #2C478F",
"k  c #2F498C",
"l  c #334D85",
"z  c #3A4F83",
"x  c #314D89",
"c  c #355587",
"v  c #3B5084",
"b  c #355688",
"n  c #395B8A",
"m  c #304C92",
"M  c #365596",
"N  c #375894",
"B  c #385896",
"V  c #32529E",
"C  c #3E6794",
"Z  c #3455A6",
"A  c #395DA1",
"S  c #365BB4",
"D  c #395FB3",
"F  c #375DBC",
"G  c #385FBE",
"H  c #3D63A7",
"J  c #3E66AC",
"K  c #3F68AF",
"L  c #3F68B0",
"P  c #3C64BB",
"I  c #4C5F8D",
"U  c #406089",
"Y  c #46768C",
"T  c #466A97",
"R  c #546692",
"E  c #497195",
"W  c #527997",
"Q  c #537B98",
"!  c #6C7F82",
"~  c #7B7C87",
"^  c #7F7E88",
"/  c #6A7A9F",
"(  c #436DB2",
")  c #436EB9",
"_  c #4877B9",
"`  c #717FA3",
"'  c #375FC1",
"]  c #385FC2",
"[  c #3A62C2",
"{  c #416DC6",
"}  c #4675C4",
"|  c #4A79C5",
" . c #4677C9",
".. c #497ACA",
"X. c #567ECB",
"o. c #59888F",
"O. c #6C9B93",
"+. c #74A299",
"@. c #518CAD",
"#. c #7181A4",
"$. c #5CA1B7",
"%. c #5EA5BE",
"&. c #73A8AA",
"*. c #75ACB1",
"=. c #77A7BB",
"-. c #7AB2B4",
";. c #7CB9B1",
":. c #4F85CA",
">. c #5388C7",
",. c #5595C4",
"<. c #5A9AC4",
"1. c #5694C8",
"2. c #669FCC",
"3. c #5EA4C5",
"4. c #63AEC5",
"5. c #64B1C5",
"6. c #69B4C4",
"7. c #6EBAC7",
"8. c #64B1C8",
"9. c #6EB6C9",
"0. c #71BBC8",
"q. c #76C2C9",
"w. c #86868E",
"e. c #8D8E97",
"r. c #8D94A8",
"t. c #9F9FA6",
"y. c #8A96B2",
"u. c #899CB6",
"i. c #919BB6",
"p. c #83BDAD",
"a. c #81A1B6",
"s. c #97A5BC",
"d. c #A3A3AA",
"f. c #B1B1B7",
"g. c #ACB3C6",
"h. c #AFB6C8",
"j. c #B8BECD",
"k. c #82C4CE",
"l. c #83CBCB",
"z. c #9EC0CB",
"x. c #92CFCC",
"c. c #8CD4CD",
"v. c #94DBCD",
"b. c #98DAD4",
"n. c #A1C5D6",
"m. c #B2D6D8",
"M. c #9BE4CF",
"N. c #9EE8CF",
"B. c #96E0D0",
"V. c #9DE7D0",
"C. c #9FE8D0",
"Z. c #A8E5D7",
"A. c #A1EAD1",
"S. c #A9ECD6",
"D. c #B1EEDB",
"F. c #B2F0DC",
"G. c #A3CBE2",
"H. c #ACD4E5",
"J. c #AFE3E3",
"K. c #C3C3C6",
"L. c #C6C6C9",
"P. c #C9C9CC",
"I. c #C7CCD6",
"U. c #CBCED5",
"Y. c #CDD0DA",
"T. c #D0D0D3",
"R. c #DCDCDD",
"E. c #C5EFEC",
"W. c #DFE0E4",
"Q. c #C8F3EC",
"!. c #D0FBEE",
"~. c #D6FDF1",
"^. c #D8FFF2",
"/. c #E5E5E6",
"(. c #E6E6E8",
"). c #E7E8E9",
"_. c #FFECECEC",
"`. c #F0F0EF",
"'. c #F1F1F1",
/* pixels */
"_._._._._._._._._._._._._._._.'._.'._._.'._.'._._.'.'.'._._.'._._.'.'._._._._._._._._._._._._._._._.",
"_._._._._._._.).)._._._._./.Y.I.I.I.I.I.I.I.I.I.I.I.I.I.I.I.I.I.I.K.K.K.T._._._._._._._._._._._._._.",
"_._._._._._._._._._._._._.Y.I z v v z U v v v v v v v v v z z v e * % % f )._._._._._._./._._._._._.",
"_._._._._._._._._._._._._.U.z 8 8 8 8 8 q q 0 0 8 0 0 q q 8 q q 4 o . . y (._._._._._.)._._._._._._.",
"_._.)._._.)._._._._._.`.'.Y.z 8 8 8 8 8 8 8 0 0 8 8 8 8 8 8 8 q 4 O X . y _.'.`._._._._._._._._._./.",
"_._._._._._._._._.).j.g.g.s.T C T T C C C T C C C C C C T C C C U 4 3 2 p t.d.t.L._._._./._._._._._.",
"_._._._._.)._._._.W.R q w n %.4.4.4.4.3.4.4.4.%.4.4.4.4.4.4.4.4.<...| ..N + + o #._._._._._._._._._.",
"_._._._._._._._._.W.R 8 8 c %.4.4.4.4.4.4.4.4.4.4.4.4.4.4.4.4.4.4... ...N o X X ^ _._._._._._._._._.",
")._._._._._._.).'.W.R 7 g b 3.4.5.4.5.4.4.4.4.4.4.4.4.4.5.4.4.5.3.......B O . . ^ _._.)._._._._._._.",
"_._._._._._.h.y.y.y.u.a.a.a.4.4.4.4.4.4.5.4.5.4.4.4.5.4.4.<.1.1.,......._ s s s ! ^ #.w.L._._._._._.",
"_._._._._.).` 7 8 l m.^.^.E.9.4.4.4.4.5.4.4.4.5.4.4.4.4.4.:. . .........4.Z.A.A.s . X O d.`._._._._.",
"_._._.)._.).` 7 8 c m.^.^.F.9.4.4.5.4.4.5.4.4.4.5.4.5.4.4.:. ...........2.M.C.A.s . X O d.`._._._._.",
"_._._.).)./.` q q v m.~.~.F.9.8.8.6.8.4.5.6.5.5.5.5.5.5.4.:.....| ......4.b.M.A.s X o + t.).)././._.",
"_._.h./ / / &.-.-.;.Z.F.F.F.J.J.J.J.J.J.J.J.J.J.J.b.c.c.c.k.k.k.k.k.k.k.=.W W Q U l j x p y y f T._.",
"_._.i.8 5 0 *.S.A.A.C.C.Z.S.!.^.^.~.^.^.~.^.~.^.~.F.C.A.C.A.A.A.A.A.A.A.-.8 8 8 V [ [ ] ;     % K.`.",
"_._.i.8 0 q *.A.C.C.C.C.V.S.!.~.~.~.~.^.^.~.~.~.~.F.C.C.A.A.C.A.A.C.C.Z.-.w 8 8 V [ [ G 1 . . % K._.",
"_._.i.q 0 w *.A.C.C.C.C.N.S.!.~.~.!.E.E.E.E.E.Q.E.J.v.v.v.v.v.v.v.M.M.N.*.h g g V [ [ P 1 X X % K._.",
"_._.u.q q w *.A.C.C.C.C.N.S.!.~.~.H.X.X.X.X.X.X.X.X.| | | T p I E 6.7.7.$.P S S [ .. .} 2 X X & K._.",
"_._.i.q 0 w *.A.C.C.C.C.V.S.!.~.~.G.{ ] ] ] ] ] F ] ] ] P g 0 0 c %.4.4.,.[ [ ' [ .. ...3 . X % K.`.",
"_.`.i.q q q *.A.C.C.V.V.N.S.!.~.~.G.{ ] ] ] ] ] ] ] ] [ F j 0 0 c %.4.5.,.' ' [  ... .| 2 X X & K.`.",
"_._.i.0 0 q *.A.C.C.C.C.V.S.!.~.~.G.[ ] ] [ { [ [ [ [ [ [ k q q b %.5.5.,.[ [ ' [ :... .2 X X % K.`.",
"_._.i.0 q w *.A.C.C.C.C.V.S.!.~.^.G.{ ] [ {  ...:.......[ b 0 q b %.5.5.,.[ ' [ [ ....| 2 X X % K._.",
"_._.i.q q q *.A.C.C.C.C.N.S.!.~.^.G.[ ] [ { | .. .......} x q q c %.5.5.,.[ ' [  .......3 X X % K._.",
"_.'.i.q q w *.A.C.C.C.C.N.S.!.~.^.G.{ ] ] { | ..........| x q 0 c %.5.5.,.[ [ [ { ......2 X X % K.`.",
"_._.r.2 2 4 &.N.C.C.C.C.C.S.!.~.~.G.[ [ [ } .. ...P J J J h q q b %.5.5.,.[ [ G { ....| 3 . X % K.`.",
"_.'.w.o X O O.A.C.C.C.C.C.S.!.~.~.H.[ [ [ [ .. ...B q q q q q q b %.5.5.,.[ [ [ { ....| 3 . X % K.`.",
"_._.w.X X O O.C.C.C.C.C.C.S.!.~.^.G.[ [ [ [  .:...M q q q q q q b %.5.4.,.[ [ [ { ....| 4 . X % K.`.",
"_._.w.X X O O.A.C.C.C.N.C.S.!.~.^.G.[ [ [  ... ...N q q q q q q b %.5.4.,.[ [ [ { ....| 3 . X % K.`.",
").'.w.X X O o.l.q.c.M.N.V.S.!.~.^.n.V V V V H H A k q q q q q q c >.,.1._ V V V D { { { 3 . . % K.`.",
"_._.w.X X o Y 8.5.5.v.N.V.S.!.~.^.z.w 0 q q 0 q q q q q q q q q x } ....( w 8 8 V ] ] F 1 . X % K.`.",
"_.'.w.X X o Y 5.5.8.v.C.C.S.!.~.^.z.w 0 q q q q q q q q q q q 0 x } ....( 8 q q V [ ] G 1 X X % K._.",
"_._.w.X X o Y 8.5.8.v.V.M.S.!.~.^.z.l q q q w q w q w w q q q q x } .. .( q q q V [ ] G 1 X X % K.`.",
"_._.w.X X O Y 8.5.5.0.q.q.q.D.F.F.x.@.@.@.@.@.@.@.@.@.@.@.L L L L ......L q q q k m m k - X X = K._.",
"_._.w.X X X Y 8.4.4.4.4.4.7.B.N.A.c.6.5.8.5.5.8.5.5.8.5.4.:.:. .........L q q q q 0 0 0 - o X % m.`.",
"_.`.w.X X X Y 8.5.5.4.4.4.7.M.C.A.c.5.5.5.5.5.5.5.5.4.5.4.:.:. ... .....L q 0 0 q 0 q 0 -     % K.`.",
"_._.e.= * * Y $.$.$.5.6.5.0.v.v.v.l.%.3.%.%.%.%.%.%.%.%.$.:.[ } } } } ..K h h h q 0 0 6 > = % < L._.",
"_._.R.L.L.K.a * : , ;.b.B.l.>.| | ( b b b b b b c c c c b x x x k x k k N ) } ) q @ @ # w.P.L.P./._.",
")._._._._._.d   X $ p.A.A.c.{ ] [ Z q 0 0 q 0 0 0 0 0 q 0 q q q q q q 0 N ......w X X + d.'._.'._._.",
"_._._._._.).i   . $ p.A.A.x.{ ] [ S q q q q q q q q q q q q q q q q q 0 N ..:...q . X o d._.).'._._.",
"_._._._._._.^ < r t +.p.p.&.( S S Z q q q q q q q q q q q q q q q q q q k H H H p r r r f.'.'.)._._.",
"_._._._._._.W.R.R.T.t $ $ = 0 w g q q q q q q q q q q q q q q q q q q q 4 $ + O ~ R.R.R./._._._._._.",
"_._._.)._._._._.`.R.r . . + 0 q q q q q q q q q q q q q q q q q q q q q 2 X X . #._._._._._._._._._.",
"_._._._._._._._._.R.< . . O 6 q 0 q q 0 q 0 q q q q 0 q q q q q q q 0 q 2 . . . ~ _._._._._._._._._.",
"_._._._._._.)._._./.#.y d u 3 2 2 2 2 2 4 1 2 1 2 2 2 2 2 2 2 2 1 4 2 2 9 i d d d._._._._._._._.)._.",
")._._._._._._._._._.).)._.K.* X o X o o X o o o X o o X X O X O X o X X y /._././._._._._._._._._._.",
"_._._._._.)._._._._._._.'.L.* . X o X X X X X X X X X X X X X X X X X . y /._._._._._._._._._._._._.",
"_._._._._._._._._._._._._.K.& X X X X X X X o X X X X X X X X X X X X . y _._._._._._._._._._._._._.",
"_.)._._._._._._._._._._._.R.e.w.w.w.w.w.w.w.w.w.w.w.w.w.w.w.w.w.w.w.w.w.d./._._._._._._./._._._._._.",
"_._._.)._._._._._.)._._._._._._._.`._._.`._._.`._._.`._._.`._._._.`._._._._._._._._._._._.)._._._._.",
"_._._._._._._._._._._._._._._._._._._._._._._._._._._._._._._._._._._._._._._._._._._._._._._._.)._."
};
