/* XPM */
static char *result[] = {
/* columns rows colors chars-per-pixel */
"102 102 34 1 ",
"  c #4E7553",
". c #507755",
"X c #527A55",
"o c #587F55",
"O c #547D59",
"+ c #5C8356",
"@ c #56815B",
"# c #5A855D",
"$ c #618756",
"% c #658B57",
"& c #608758",
"* c #638C5B",
"= c #688D58",
"- c #66915E",
"; c #6B935B",
": c #70975A",
"> c #769D5C",
", c #789F5C",
"< c #7DA45E",
"1 c #5A8760",
"2 c #5E8D64",
"3 c #5F9066",
"4 c #608F66",
"5 c #609066",
"6 c #699665",
"7 c #6C9A64",
"8 c #729E63",
"9 c #75A163",
"0 c #7BA562",
"q c #7FA861",
"w c #81A75E",
"e c #83AA5F",
"r c #83AB61",
"t c #88AF60",
/* pixels */
"555555555555554555553535555555555532O.21 O335555555555555335555555535555555555435545555555455545555545",
"5555555554555355555555555555555553441OOO@1355553545555555555555555555553555555555553555555355555555533",
"55555345555555555555555555555555555532OO23555555555555555555555555555555555355535555555555555555443555",
"535555553555555555355555553534554555321125555555553555555555553555555555555555555555455355555553445555",
"455554555545355455555355555555555555445455555444555555555535555555555555555555555555555554534555445555",
"555555555555555555555555545545555555444445555554255555555555555555555555555555555535555555555555445455",
"555555555355355535555555555553555555554455555546655555555555553555555555555535555555553555535535555555",
"555355355555555555555555553555553555455555555569055555555555555555555555535555555554555555555555555555",
"55553555555555555555555555555555555555455555468rr55355555555355555555555555555555553555555545555555555",
"5535555555555555555355533555555553555555555568rtr55553553555555555555555555555554555553555554555555555",
"5555555554535535555355555554354555555546875540tt055555555555535555577545555555555555555555555555555553",
"5555555555555555555555555555555535554446r05569ttr65555555555555555600644555555555555455555355355435554",
"5535555555555553555555545545555555555546rr9=@>r86555535555555555556r0533555555555555353555555555555555",
"55555535555555555555555555555553555355460rr=o:065555555555555555556r0533555555553455555555555555555555",
"5555555555355555355555555553555455555552#=tr>=+25555555555555558966r0633555555555555455555555545555555",
"5555555355555555355555555555555355555532O&,<>&X25555555555555550r66r0535555555555555555554355355355555",
"535355455553555555555544555455555555555221oOo1125555355554555558r66r0555555555555555555555555555455535",
"555555555555453555555544555535555555555541XXO2555555555555555450r6598655555555555555555555545555555545",
"5555535555455555455355445555555555555555422222545555555555355550r7555555555555555555555355535534555555",
"555555555553555555555544355555555355555555555555555555545555555786555555555555555353555555555555555555",
"534555545555555355553455555555555555555355555555555545555555555555555455555555555555555555345555555555",
"555555555555555555555555555453555555555555553555555555535555555535555555555555555555555555555555555555",
"555555555555555535543555355554555555553555555545555555555555545555555544555555555555355555555543553455",
"55555535553455555555555555555555553555555555555555555555555551O155555544555555555535355555555553553555",
"5555455355555554554555555555355555555555555554555555555555522@X114444444555553555555555355534555534555",
"555355555555555555555455535555455555555355355555355555555551XO1OO2444443553455555555555555555555555555",
"554555535355535555555555555455555555555555555553555555555551OO1OO2554333555555545535555555555555555555",
"5555555555455555553553555555555555355555555355555555533555542@.144553333555555555555555555545555555555",
"55555555555555455555555553535555555553555555555355555555555531O255535555553553555555555555535555555555",
"555535555545555555555555555555355555555555555555555555555555532254555545555455555555535555555555555555",
"555555555555555555555455555555545355555555555555553533555555555555535553555555455355555555555555355555",
"354555545553553545355355555455555553555555355555555556555555555555555555555555555553555555554355455534",
"555555554555555555555553555555555555555544455555555579623355555555555545555555555555545353355545455555",
"55555555555555535555555555555555555555552544555555558t865355555555453555355535555455555555455535555555",
"55555555555555554553555555555555555555555555555453558tr96335555555555555455555545355555555555555555555",
"55566555353555555555555555555555565555555555555555558ttr7355755535555555355555555555555555555555555556",
"5557r7555555555555555555555555557r8555555535555555559rtr6548q85555455355555545555545535434554355555558",
"5557t8555555555535555555555555558r85555554555545555570rr*#68t85555554555553555554555555555555555556668",
"5558r7555555535554555555555555558r8555555555555555555600++<ee8555355555555555553445555555555555557r858",
"5558t7667545555535555555555555558r857855555553555553556;;;ew:6555555555555555555443555555555555556r058",
"5558t860r633355555545555555554558r860r5555555553555555OX>re:X@355555555555555555445555555553555557r958",
"5557r750q633555555535555555535558r840r65555555555555551#&%=##1355435555555555555455555555554435556r056",
"5557r760r6445555555555555555555580868r635555455355555552X  O25555555555355555555555555555555555556r855",
"55566650q6535535555555535354555566650r6255555555555555521112355555555545555555555555433555555555566655",
"555555590633555555554555555555552336806355555555555555555554555555535555555555555555555555555555555555",
"555555556533555555555555555555553355565555553555555555535555555555555555555555553555555555555555555555",
"555555555545555555555535355555555555555555555555555355555535555555555555555555553555555555555345555555",
"555555555553554555455555555555553555555555554555555555535555555555555555555555555555555534555355555555",
"555555555555555555545677555555555553555555555555555555555555555455535555555555567644555555554555555555",
"5555555555555555555557q955555555555555355555555555535535555555555555553555455557r864553545555555555555",
"555555555555555555368888965555555455455555555553555555555553555345535455555556887886555555555555555555",
"55555555555555554337q068r85555555555555553535555555554554555555555555555535556r968r7255553535535555555",
"55555555555555555555680965555555553554555555555555553535555555555555553555555568q866555555555555555555",
"5555555555555555555537q855555555555535555555555535554555555555525555555555555557q744355455554555555555",
"555555555555545555553565555555554555555555553555555555555555555555555554554555556645555554555555555555",
"555555553435555555555555555555555555555553545555555555555555555545355555555355553555555555355535555553",
"555555555555455555555353545555555552444555555555555555555555555555555555555555553355555555555555555555",
"555555555553555555455545555554535355445555555555555555555555355535555455555555534455535535555555555555",
"555555555555555555555555553555555555555555335555555555533555555555545535555555554455555555555555535555",
"5555555555555535555555555555555555555442O1535535533555555555355555555555353555554455555555555355555355",
"5556555555555555555555553555555555555331 O235555555555555355555553553555555555553555355555555555555555",
"56900755555545555545255555555555535553OO11X15355555555555555555555555555555555555555555555555355555555",
"56rrr865555655535555445535555455555552OO11.15555555535555555555555535455535553555555535555555555555553",
"5569tr0669rr8555555444555554355555555311.O125555553555555555535555543555554555555555555553235555555355",
"55570rr87rr08455555555555335555553555551O1455555555555555555555555566555555545555555555557665555444545",
"555560trrtr664555555555555555555555555522255555555553555553555553560963555555555435555556rrr8555444455",
"5555467rr>654444555555555555555555555535555555553555545545555456766q0533355535555555555469rr0755778755",
"55554oo8roo24455555455355555553555555555555355555555355555555559q66q96335555555535555553558trr76rrr855",
"55554O &*o125554555555555553555555555555555555555554555555535550r66rq63355545555555545555568rt90tr8755",
"55555o .O1345555555555555555555555355555555555555554555555555550r66r9633535535554555555555448rrrt86453",
"555551@112555555555555555555553555555553555555554544435555535550r657653555555555444555555554*=rr4*4555",
"55555555555535535554535555555555555355554535525555444555555555580655555555555555444455555554O.78OO2455",
"55553555455555555555455355553555555555555555333353555555355545566555535555555555535535555544O.oo122555",
"55555555555555554555555553555555355555555555566555555555554555533555555555555535555555555544@X.O255555",
"5555555555535535555355555555535555555555555358q6355554355555535555555555555355555555555555554114435555",
"555555555555545555555555555555555555535555567008755555553555555555555555555555534555545555555544555555",
"55535554545555555555555553555555535555555358r760065555555555555555555535555555555555555555555555555555",
"554555535555545535554555554555545555555555570888835555555535555555555555555535555535554555555555355435",
"5555555553555555555535555555555555555555555550r6344535555545555555555555555555555555555554555455555554",
"555555555555355534555555555555355555535555555675335554555555555355555555535555555555555555555555555555",
"555555555555555555555555455553555555555553553555555555535555321335555555555555354553555555555555545555",
"55355355555555555555555555554555355555555555555555555555555351O155555555555355555555553555555535555355",
"5555555554554553455553555555555555555555555555555535555555322@X123453555555554555555555555555555555555",
"555455553535555553555554355555555555535555555555555555555531O@1OO1555545545555555555545555535555555355",
"555335545555545555545555555534555535555553535554355555555551X@1OO2345555555555455455353555555535455555",
"4555555555555555555555555554555555555555554555535555535535533@.122445553535553553555455555555555555555",
"55555555555555555555555553555555555555555555555535455555555551O155445555555555555555555555555555555355",
"555555554355535555535535555535555555353555555555555555555555555554545554355555555555555535355555555555",
"555535455555555555545553555555555555555553555555555553335555555555555553553555555555555555555555555555",
"435555554355555555555555555555545555555555555555555356555555555555455555455555555555555555535555555555",
"555535555555555555355554555355535355355555553555555579655555555553555455555555543555555555555553535535",
"55555555555553545555555545555555555555555555555555459t865553535555555555555555535555355555555555555555",
"35535554535555453554555555555555445555555555555555558tq06442555555555355555545555555555555555555355555",
"55555555555555555555555555555553566255555553555355559ttr6456665555555555455545255554555555555553555555",
"555555555455535535555555555444457r8355535555555355558ttr6457r85555554555555544555555555555535555555553",
"555555555555555555555545555444558r83555555555555555579rr*468t85535355555555554555553555255555555555555",
"555555555555555555535555554555557r855644335555555555558roowtt86545555555555555455555555555555555555555",
"553555535553555555554535555555558r85776453455535535555*6;:ww;*4255553555455555535535555555555555355555",
"555555535555555355455555555555558r860r6355554555555555O.,wr:X@4553555545535555555455554355535555355555",
"555555555555555555535555553555558r768r635535555555555521&$$&114555555555555555555555555555545355555553",
"555555555555555555555555555553557r760r645555555553555552X..O445554555555555553555553555355555555555555",
"5553555555555553555555355545555566468r6445555553555555541114545555553555555555545555455555555355555555"
};
