/* XPM */
static char *result[] = {
/* columns rows colors chars-per-pixel */
"100 100 43 1 ",
"  c #070707",
". c #0C0C0C",
"X c #0F100F",
"o c #0F0F10",
"O c #0F1010",
"+ c #121212",
"@ c #171817",
"# c #171818",
"$ c #1A1A1A",
"% c #1F201F",
"& c #242424",
"* c #272828",
"= c #2B2B2B",
"- c #2F3030",
"; c #333434",
": c #373838",
"> c #3B3B3B",
", c #3F4040",
"< c #434343",
"1 c #474848",
"2 c #4B4C4C",
"3 c #4F5050",
"4 c #535454",
"5 c #575858",
"6 c #5B5C5C",
"7 c #5F6060",
"8 c #636464",
"9 c #676868",
"0 c #6B6C6C",
"q c #6F7070",
"w c #737474",
"e c #777878",
"r c #7B7C7C",
"t c #7F807F",
"y c #7F8080",
"u c #848484",
"i c #878887",
"p c #878888",
"a c #8B8C8C",
"s c #8F908F",
"d c #8F9090",
"f c #929392",
"g c #989898",
/* pixels */
"+O+X+o++o++o+o+X+.+.+++.+++.+.+++..++X+.+.++.+X++X++++++++++++++++@@++++$$+++$+++$+$$$$$$@$$$$$$$$%%",
"++++X+X++o+XX++X+.X++.+.+..+.++..+++.+++X++++++XX++.++o++++++X+++++++@+++++$$+$@$+$$+$$+$@$$$$$$%$%$",
"X+.++X++++XoXooX++++..+++.++.++.+++.+..+.++Xo+o+++++.+.+++++++++@++++@+++$+$+$+$+$$++@$$$$$@$$$$$%$$",
"+o++o+oXoX++Xo+X.+..+++..++.++.++..++++.++.+o++o.++.++++o++++++++++@+++@+++++$+$$++$$$$+@@$$$$$$$$$%",
"+oo+oXX++XXX++oo+.++.+X+++.+.++X+++..++.+.+.o++o++++X++++++++++++++++++$+$$++$++@@+@++$$@@$$$$$$$$$%",
"o+++++++XX++ooo++..++.+.+.++.+.+..+++.+++.X+ooo+++X+.++.XXo+++++++++++++++++++$++@@@$$$+$@@$$$$$$%$$",
"XX+XX+oXX+XXXXo+++.++.+++++.++.++.+.+..+.+.+XX.+.++X+.+++++++++++++++@++++++$$++@@+@+@$+$$@$$@$$$$$%",
"++o++ooXXXXXXXXX.++.++.+...+.++.+++.+++.+X+XX++.+.o++++++XX+o++++++++++++$+$+++$@+$+$$+$+$@@$$@$$$$$",
"+XX+oo+o+oX+oXo+++.+.X.X+.+..+.X..++++.++.+++.++.+X+++.++X+.+++++++++++++++$++$++@@@+@@@@@@@@$$$$$$$",
"o+XX+XXoXooooXXX.++.XX+..+.++.++.+...++..++.+..++.+.+.++X+++++X+++++++++++++$++$@+@+@@@@@@$@$@@$$$$$",
"X++XXX+o+o+++ooo+.+..+.++.+..++...+.+..++.X++++++.++.+++++++++X+++++++++++++++++@++@@@@+@@@@$@@$$$$$",
"XXXX+oooooooooXX.+..+.+..X.+...X++.+..+..++..+...+.++..++.+.++.+.++++++++@++$++$+@+@+@@@@@@@@$@$$$$$",
"oooooo+++oooooo..+.++..++.+.XX.X.++.+..+.++.+.o++++.++...+++.+.++++++++++++@+$+++@@@+@@@@@@@@@@@$$$$",
"+Xo+ooooXoXXooXX+.+..+...+.+.X+.+..+.++.+..+.+.++..+.+++++.++++++.++++++++++++++@++++@+@@+@@@@$@$$$$",
"+.o+XooXX..X.XXX.++.+..+.++.XXoo.+..+..+.+..+..+o++++..+.++..++.+++++++++++++++++++@@+@@@@@@@@@@$$$$",
"o+oo+oXo.+XXXXXX+..+.++.+.+.X.oo+.+..++.+.+..++...+.+.++.++.+++++.+++++++++++$+++@@++@+@+@@@@@@@$+$$",
"+..+X.+.+.+..++.+.+.++.++.+.+.oo+..++.+.+.+.+.+.X+.++o++.+X+.++++.++.++++++++++++$+++$$+$++$$+$$+$$+",
"o++..+.+.+.++..++..+..o..X.++.oo.+...+.X.X.+.+.+X.+..+.++.+.+.+.++++++++++++++++++++++++++$++$+++$$$",
"++.++.+.+..+.+...+..ooo...+......+.++..X+.+..++..X.++..+++o+.++..++++++++++++++++++$+++$+$+$$++$$$++",
"..+..+.o..+.+..++.+..X.o+....+.+...+..+..X..+..++.+..+.+.oXX++.++.++.+.++.+++++++++++$+$++$++$$++$$$",
"oooo++.++..+.++...X.oo.o.+.++.+...+.+...X..X.++..+.+.+..oo+X..++.+..+.+++.+++++++$++++$+$+$++@@$+$+$",
"o.o...+..++.X....+.X.oX..+.....X+.....+..++..$%.+.+.+.+.oo.o+++.+++++++.+++++++++++++++++++$@+++$+$$",
".oXXXX.+X..+..+.+....XXX...+.+X..+$..+..+....=;...+..+.+oo.+.+.++.+..++++&$+++++++++++++$++$+@@++$$+",
"ooXXXXX..+...+..+.X.X.+&.+.......==...+++.+..;1..+.&+.+..oo.++$++.++.++++<%+.++++++++$++++++@@+@+++$",
".+.+X..+..+...++.+....$>...+.X.X.>>...X@=..X.<5.+..,$++.XXXX.+:+.+++.++.+5&++++++++++++++@+++@@+$+$+",
"+.X.+.X..X...+.....++.$4+.....X..<2..X.$,....30+..+4$..+XXX.++4$+..++..+$0=..++++++++++++++@@+@++$$+",
".+.X...X..+....X.+.+..&9++..$@...36....%4+X..6w+..+9&....XoX.$8%.+++$+++=t;.+++++++++++$+++++++@+$++",
"X.X.+.X.++.+$.+.......=r&...&*...60X...=0+..+9r$X.%r;.+..++X.&r=.+.+;...:i>.+++%+++++++++++++@@+$++$",
"o.X.XXX....+>+...++...:i>...-:..+0w@...>t%..+8r&..=i<....+=..>i;..+%2++.2a<.+.&=+.+++++++++++++++++$",
".XX.X..X.++.>>........1s4...>2..$eu&...2i;...17+..>s4.+..=<..2a,.+.;7++.6a2.+.>>.++.++.+++++++++++++",
"Xo.o........&9$....X..4s8+..<8..$ww&...6s1...19+..<i5....15..7s2...1e$.+6e,..+5<.++++++.+o+o++o+++++",
"......X.....+04.......>w3...5w$..<<....2w>...10+..&0=.+..89.+7r2...6t&..<4+.++q4...+..+++.+++++o++++",
".o...........4t;. ....$0; .o9u&..21....=0%...<9+..&w&...$rq+.:8$.o+qi;..14oo.&u5oXoooo+o.+++++X+++++",
"...X.........:u9+.....@q:..+qi>..<2....=e%...<0+..&w&...=ar%.>0@..+39&X.23oo.<a7o.oo+ooo++.++.+X++++",
".............&eu;.....@0>..o20=..:6o.. =e& . <0+. &q&...&94+.>q@.X.<8oo.<4oX.;w<oX.o.++o+.+.+++++.++",
".X...........o>6; ....+9>...=0$..=7@ ..*w&...,0+..%q=...$0;..;w$...<7+..,6+XX&q=XXooX.+o.+o+.+X+++++",
"...............<2o.....9<.. &e&..%8%.. &w&...,0+..$q; ..$w-..=w%...26o..>7@X.&e&..o.XXXX++.++.+o++++",
"..... ........ &7&....o82...%w=..$8&...&e&.. ,0@..$q;...%w=..&w*...26o..;8+.o=w&.oo+XXo..++.++.+.++.",
"................3,.....73...$w;. $8& ..&w=...,0+ .@q>...&w&..&w= X.27o..>8+X.=w&.++..ooo+.+..+.+X+++",
"............... =6@....65. .+0, .$9&.. %w= . >q+..+q> . =w%..*w&.o.47o. <8+..=w&....+oo..+.++.+oo+.+",
"............ ...@7-....56....81..$8= X %w=.. >q@..@0>.X =w%..=w%...46...<8+..=w&...+.+..+.+.+.+++.++",
"............... .32.. .47....73  @8=. .%w=  .>0+..+0, ..-q$  ;w$...56...<8+..=w&.+...++..+.+.++.++++",
"..... . .... . . ;6+.  37....64..+8;.. %w-...;0@ .+0< . ;w$. ;w%...66...28o..-w&..+....+.++.oooo.++.",
"... ..... . .....&8$...18....55. o8; ..$w= ..;q@ .+0< ..;0@..;w$...64...28+..;q$.+..+...+.+..ooX+..+",
".......... ......$8& . <9o...47-;%9; ..$w-  .;q$+.+02@. :q+. >w@...8q1%.46...>q$.++..o+...+.+.XX+o+o",
".. .. . . ... . .$8& ..,0=;&.2tssrq=   $w;%%X;e703=tar>.>w&. >0+. ;ufgw$65@@.<0+.........+.++.XX.+.+",
". . ........ ....+8*.. >tuaq-2ifffr=.. $w8qw>;taaw4afg9o3at5+<9+..<ifgg14rwe<36o...+++.+.....+.X.++.",
".... .. . . .... $8&   ;ifsq:2uutu0= . $qefgr2eee57iaa7*0aus<>4o..-rtww<2iase42..........+.++.+.+.X.",
"... . . ... .....$9&.&*>uuu6=,wrq86=.+%=08dae40rw5<eee2;wusa6>1o..@9898=2eutq6,.......+..+..+.+..XXX",
" ....... .... . .$8=4w06wqtt86asa93-+408q1qrw94590qt6>;3wqww26r6$.&q9w3;3rui82<;=X.....o.......++.XX",
". . . ....   . ..$87sr9888fgreaiaa0-,yu9w;7yff8,2agfr,8ai0>16igg8+8auw>>euir,2rfs4o........+.+..X.XX",
"...... .. ... . o+8qar979qar7wurru0;19r0q3upaa969tiai80rar42wtaa8&0ruw=4aasu66ufgf,=$..........+..XX",
". ..... .. ... -4398q84eu0qw86ruwq6>1807ryir8044qit0w86tuu54wew3:;9q93&4ueur66qtut9ee<..+....+..X..o",
" . .  ..  .. .>ifiq68,7gfrqq8>9ayq3,9pu9iyq6qq80iir9wsr8si26r7378:0ur4>9itur670e866eiu&..........o.o",
" .  ..       =adatqfa0easu0u020fgf88par8afawafpyu006usuwssersrraf9uffwrsfiw88uw16euaafq@.........o..",
".  .   .%=>260rue0qffyrr80ufw5raiuqrffqqfggafgfqttruiw8urff09qirurruqrffaw:>egg0wasfatr>+....+....oo",
"  .  .;6wryuyrruu40pwq0044uu94wu0qiyau8qiryuffa8wp9yy9qauut966yae4ru069wiu220rr6rutsi0wu94>%.......X",
"..   @wapiuuurruy6ryuryreruyewttq9e0rr6ey78eyypqqtwrurwaiq9ryraaq7qu019rri85ww040au9wq0euaar2...XoXX",
".  ...=4qrpadddaaafdffssffassaaaaaiuuaaaiaaaaaaaaaaaasaaaaasafafsssauauuauiaaaaiuaurisffffsu2..+.Xo.",
" . . .o+$&;<360eyupdafsfffffffsssffsfsssdfafafaafffssffassssfsffffffgfgffgfgfgfggffsairw74,&@....X.o",
".. .....++++@#$&&=-;><244699qwertyuuuaaaaadaafdfaffsfsfffffdaddaaaaiiuuutrew007642<>;=&$$$+@++.+X.X.",
". .  ...ooo++@#$$$$$$$$$$$$$$%%&&&*==-=;;>>:>>><,<,,<,,,,,,>>>>>:;;;-=*&&&%%$$$$$$$$$$$$++++.....X.X",
". . . .....oo+##$$$$$$$$%$$%%$$$$$%$$$$$$$$$$$$$$$$$$$$$$$$$$$$$$$$$$$%%%$$$%%$%%$$$$$+++..+...X.X.X",
".. . . ......o+@+$$$$$$$$$$$$$$%$$$$$$$$$%$$%$$%$$$$%$$$$$$$$$$$$$%$$$$$$%$$$$$$$$$@@@++++..+...+.X.",
" ... . .......+++@@@$@$$+$$@$@$$$$$$$+$$$$$$$$$$$$$$$$$$$$$$$$$$@$$$@$$$$$$$$$$@@@@+@+++.o+.....o.+.",
".  ..  . .....o+++@++@+$@$@$@@@@$@@@+$$$+$$$$$$$$$$$$$$$$$+$$+$$$+@$@@@$$$$++$@@@@@++++.+......+....",
" ..  .. .. ...ooo++++@@@+@$@@@@@$@@@$+$+$$$$$$+$$$+$@@+$$$$+$+$$++$$+@@@$$$$$@+@+@+++.++.+.......o.o",
".  ... . .....ooo++++++++$+@@+@@@+@@@+@+@+$++$$$+$$+@@@@+$+$+$++@@@+$@@@+$+++@$+++++++......+.....o.",
". .  ..  .......oo+++++++#+$@@+@@+@@++++++@+$+$++$+$@+@@$++$+++@+$+$++$+$$+$@+++++o+o.+..+........oo",
" . ..  ..  .....oooo+++++++++++++@++@++++@$++$+$++$++@+++$+++@+++++++@+@+++++@++++++oo..........o...",
".. . .. ........ooooo+X+++++++++@+++++++++@+++$++$+@++@++++++$+++++$+++++@@++++++++oo+.+......+....o",
". . .. . . ......oooo++X++++++@+++++++++++++++++++++@@++$+++++++++++++$+++++++++++oo....+.+......o..",
" . .. .. . ......X.XXXXX++++++++++++++++++++++++++++++++++++++++++++++++++++++++XXXXX..o....+.......",
" ..  . .. ... .....XXXX+++o+oo+++++.++++.+o+++++++++++++++++++++++++++++++++++o.++.X.o............o.",
".  . .. .. ......Xo.oX+.ooooo+o+++++.+o++++++++++++++o+.+++++++.+++++++++o+o+..+....X..........X.XX.",
"  .  . .  . . ......X..+ooooo+oo.+.++.+.+.+.+++.++++++++.++..+++++++.++++++o+.++.+XX...o............",
" ..  . .. . ........o.o.oooooooo+.+.o+.+++.+.+++++++.++++..++.+++++.++o..+.+.++....+..o.........X...",
".   . .  . . . ........X..oooooo+..+..+o.o.+++.+o+.+.+.+++++++.+oo.+.++++.+++..++..................X",
"   .  .... ..............ooooooo+..++.+..+.++.+.++.++.+o.+....+..+.o+++...+...+..+..............X...",
" ..  .  . .  . .......o.o...X.XX..+.+...+.+..+.+.o+..+.o+.+..+.++..+...++..++...+...................",
" ..  .. . . . .............oXo.oo.o..o.+.+.+.+...++..+XXoo.oooooXXXXXXooXooX.XX................ ....",
".   .  ... . .  ...........X...oo..oo.o.....+..++....X....oo..X....X..o..X..X.X.....................",
"   .     . .............X........oX...oo...+..+....+.+.X.Xo.oooXX..Xo..o.ooo..X.....................",
" ..  ..   . .  . . ...........o.............+...+..+..X..o.oo..o.XX.oX.o.X..X...+...................",
"..    . .. . . ..... .......X...........o.....+.....X..X.X....X.X.X.o.oo....X.......................",
"   ..  .   ....  ..... ...............X....+......+.......X..X.......o...o.o..X.....................",
". . .  .   .. ... .  . .. ............................X.X........XX.................................",
"  .  .  ..   .   ...........................+...+...X......X..XX.....o.o...X............ ...... . ..",
".   .. ..   .. . ..  . ..  .................................... ..............X..X.. ..... X........",
". .      ..   . . ........... ................ ........................... ... .. ...... ..X........",
"  .. ..   . .. . ..  ........  .. ........X................ . X....................... .. .  .......",
".      ..  .  X  . ..  . . ....... . . ..  ......................................... .......X.X ....",
".  ..  . .     X. .. ..  X.X...  ... . .... .. ................................. . ......  X X..... ",
"  .  .   .. ..   .. .  ..    ...... .... .... .. . ......X................ . .. .... .. ....X X ....",
" ..  ..      ..  . . ..  . ..  ....... . .. ......... . . .. .... . .............. .... . X X  XX...",
".   .  .. ..    . . .. . ... . . . .. ....... .. . ....... . . ..... ..... . .. . .. ..... X . X ...",
"  .   .. ..   .  .  . . . ... . .. ....X.  .......... ..... .......  ...... . .... .. .....  .. ....",
" .. .      ..  ..  X . X .. .  .. .  .   ....  . X ... . ... . . ...... . .... .. .... . ...........",
"     .. ..  .  ..  . .  .  . .. . . .  ... . X...  X..... . ... . .  . .. . ............ ... . .....",
".. . .    .  .    . . X  .. . .... .. . . . . . . X  . ..... ................ ... .  . .... ...... ."
};
